<svg  viewBox="0 0 21 11" xmlns="http://www.w3.org/2000/svg">
<path fill-rule="evenodd" clip-rule="evenodd" d="M2.7779 1.20364C2.43083 0.774032 1.80121 0.707126 1.37161 1.0542C0.942001 1.40127 0.875095 2.03089 1.22217 2.46049C1.66273 3.00582 2.20303 3.5931 2.84903 4.16319L1.12242 7.15376C0.84628 7.63205 1.01016 8.24364 1.48845 8.51978C1.96674 8.79593 2.57833 8.63205 2.85447 8.15376L4.45823 5.37597C5.30985 5.91756 6.28453 6.39106 7.38931 6.72663L6.88255 9.6006C6.78664 10.1445 7.14981 10.6632 7.69371 10.7591C8.2376 10.855 8.75626 10.4918 8.85216 9.9479L9.34631 7.14544C9.87359 7.21342 10.4247 7.25003 11.0001 7.25003C11.5708 7.25003 12.1175 7.21402 12.6408 7.14711L13.1349 9.94923C13.2308 10.4931 13.7495 10.8563 14.2934 10.7604C14.8373 10.6645 15.2004 10.1458 15.1045 9.60193L14.5982 6.73046C15.7055 6.39548 16.6824 5.92191 17.5358 5.37989L19.1285 8.1386C19.4047 8.6169 20.0163 8.78077 20.4946 8.50463C20.9729 8.22848 21.1367 7.61689 20.8606 7.1386L19.1456 4.16811C19.794 3.59649 20.3362 3.00741 20.778 2.46052C21.1251 2.03091 21.0582 1.40129 20.6286 1.05422C20.199 0.707148 19.5693 0.774053 19.2223 1.20366C18.7202 1.82513 18.0814 2.49555 17.2927 3.10849C17.2604 3.13051 17.2297 3.15415 17.2007 3.17925C15.6953 4.32362 13.6577 5.25003 11.0001 5.25003C6.87512 5.25003 4.24385 3.01818 2.7779 1.20364Z"/>
</svg>
