<svg viewBox="0 0 16 18" xmlns="http://www.w3.org/2000/svg">
<path fill-rule="evenodd" clip-rule="evenodd" d="M6.20292 2.59462C6.78502 2.36348 7.40835 2.24646 8.03703 2.25019C10.6455 2.26929 12.7626 4.37993 12.7626 6.95844V7.49021C12.7626 10.0741 13.2792 11.7175 13.825 12.7304H2.17502C2.72119 11.7174 3.238 10.074 3.238 7.49022L3.23801 6.89071L3.23801 6.88965C3.23713 6.27769 3.36107 5.6717 3.60259 5.10666C3.84411 4.54163 4.19836 4.02885 4.64471 3.59776C5.09106 3.16668 5.62068 2.82582 6.20292 2.59462ZM8.04723 0.740353C7.21076 0.735313 6.38164 0.890993 5.60768 1.19832C4.83374 1.50564 4.13041 1.95846 3.53813 2.53049C2.94585 3.1025 2.47632 3.78239 2.1564 4.53086C1.83655 5.27916 1.6725 6.08134 1.67359 6.89121L1.67359 7.49021C1.67359 10.0671 1.11868 11.4885 0.690332 12.204C0.566898 12.409 0.501369 12.6416 0.500021 12.8784C0.49867 13.1158 0.561839 13.3496 0.683471 13.5562C0.80512 13.7628 0.981081 13.9352 1.19403 14.0555C1.40701 14.1758 1.64925 14.2396 1.89629 14.2402L1.89831 14.2402H5.00589C5.05141 14.9674 5.36047 15.6557 5.8787 16.174C6.44131 16.7366 7.20437 17.0527 8.00002 17.0527C8.79567 17.0527 9.55873 16.7366 10.1213 16.174C10.6396 15.6557 10.9486 14.9674 10.9942 14.2402H14.1017L14.1037 14.2402C14.3507 14.2396 14.5929 14.1758 14.8059 14.0555C15.0188 13.9352 15.1948 13.7629 15.3164 13.5563C15.4381 13.3497 15.5013 13.116 15.5 12.8786C15.4987 12.6419 15.4333 12.4095 15.31 12.2046C14.8818 11.4891 14.327 10.0676 14.327 7.49021V6.95844C14.327 3.58691 11.5538 0.765651 8.0482 0.740359L8.04723 0.740353ZM9.48825 14.2402H6.51179C6.55321 14.5689 6.70264 14.8766 6.93936 15.1133C7.22066 15.3946 7.6022 15.5527 8.00002 15.5527C8.39784 15.5527 8.77937 15.3946 9.06068 15.1133C9.2974 14.8766 9.44683 14.5689 9.48825 14.2402Z"/>
</svg>
